<?xml version="1.0" encoding="utf-8"?>
<!-- Generator: Adobe Illustrator 19.2.1, SVG Export Plug-In . SVG Version: 6.00 Build 0)  -->
<svg version="1.1" id="Layer_1" xmlns="http://www.w3.org/2000/svg" xmlns:xlink="http://www.w3.org/1999/xlink" x="0px" y="0px"
	 viewBox="0 0 55 37" style="enable-background:new 0 0 55 37;" xml:space="preserve">
<style type="text/css">
	.st0{fill:#107EBF;}
	.st1{fill:#5A5B5B;}
</style>
<g>
	<path class="st0" d="M30.5,11.5c0-2.2-2.1-1.9-2.1-1.9h-4v6.6H26v-2.3h1.6c1,0,1.1,1,1.1,1v1.3h1.6v-1.6c0-1.1-0.8-1.5-0.8-1.5
		S30.5,12.7,30.5,11.5z M27.8,12.4H26v-1.2h1.7c0.5,0,0.9,0.3,0.9,0.6C28.7,12.1,28.3,12.4,27.8,12.4z"/>
	<path class="st0" d="M36.5,11.1h1.7V9.6l-2.1-0.1c-0.1,0-2.6-0.1-2.6,3.5c0,2.8,2.2,3.1,2.2,3.1h0.8h0.3h1.5l0.6-1.4h3l0.6,1.4h1.6
		h0.3h1.4v-4.4l2.6,4.4h2.3V9.6H49v4.3l-2.6-4.3H44v6l-2.5-6h-2.3l-2.1,4.9c-0.1,0-2,0.7-2-1.5c0-0.1,0-0.3,0-0.5
		C35.4,11.1,36.5,11.1,36.5,11.1z M40.4,11.2l0.8,2h-1.6L40.4,11.2z"/>
	<path class="st0" d="M3.2,14.8h3l0.6,1.4h1.6h0.2h1.5v-4.5l2.1,4.5h1.4l2.1-4.5v4.5h1.7V9.6h-2.6L13,13.7l-1.8-4.1H8.4v6l-2.5-6
		H3.6L1,15.7v0.5h1.6L3.2,14.8z M4.7,11.2l0.8,2H3.9L4.7,11.2z"/>
	<polygon class="st0" points="23.5,11.1 23.5,9.6 18.3,9.6 18.3,16.2 23.5,16.2 23.5,14.8 20,14.8 20,13.6 23.4,13.6 23.4,12.2 
		20,12.2 20,11.1 	"/>
	<rect x="31.2" y="9.6" class="st0" width="1.7" height="6.6"/>
	<path class="st0" d="M37,22.7c0-2.2-2.1-1.9-2.1-1.9h-4v6.6h1.7V25h1.6c1,0,1.1,1,1.1,1v1.3h1.6v-1.6c0-1.1-0.8-1.5-0.8-1.5
		S37,23.8,37,22.7z M34.2,23.5h-1.7v-1.2h1.7c0.5,0,0.9,0.3,0.9,0.6C35.1,23.2,34.7,23.5,34.2,23.5z"/>
	<path class="st0" d="M28.1,20.7h-4l0,0h-1.3l-1.9,2.1L19,20.7h-0.9h-5.2v6.6h5.2h1l1.8-1.9l1.8,1.9h1.5h1.6v-2.1h1.6
		c2.2,0,2.9-0.6,2.9-2.5C30.2,20.5,28.1,20.7,28.1,20.7z M18.1,25.9h-3.5v-1.1H18v-1.5h-3.4v-1h3.5l1.6,1.8L18.1,25.9z M24.1,26.4
		L22,24.1l2.1-2.3V26.4z M27.5,23.5h-1.7v-1.2h1.7c0.5,0,0.9,0.3,0.9,0.6S28,23.5,27.5,23.5z"/>
	<path class="st0" d="M46.2,25.8h-2.6v1.5h3c0,0,0.1,0,0.2,0c0.6,0,2.2-0.2,2.2-2.3c0-2-2.5-1.8-2.5-1.8s-1.2,0.1-1.2-0.5
		s0.9-0.5,0.9-0.5h2.6v-1.5h-3.2c0,0-2.1-0.1-2.1,2c0,2.2,2.3,2,2.3,2s1.4,0,1.4,0.5C47.1,25.9,46.2,25.8,46.2,25.8z"/>
	<polygon class="st0" points="42.8,22.3 42.8,20.7 37.6,20.7 37.6,27.3 42.8,27.3 42.8,25.9 39.3,25.9 39.3,24.8 42.8,24.8 
		42.8,23.3 39.3,23.3 39.3,22.3 	"/>
	<path class="st0" d="M49.3,22.8c0,2.2,2.3,2,2.3,2s1.4,0,1.4,0.5c0,0.6-0.9,0.5-0.9,0.5h-2.6v1.5h3c0,0,0.1,0,0.2,0
		c0.3,0,0.9-0.1,1.4-0.4v-3.4c-0.7-0.4-1.7-0.3-1.7-0.3s-1.2,0.1-1.2-0.5s0.9-0.5,0.9-0.5h2v-1.5h-2.6
		C51.4,20.7,49.3,20.6,49.3,22.8z"/>
	<path class="st0" d="M51.7,1H3.5C2.1,1,1,2.1,1,3.6v8.9l1.7-4.1h4l0.5,1.1c0-0.2,0-1.1,0-1.1h4.7c0,0,0.7,1.6,1,2.3
		c0.3-0.7,1-2.3,1-2.3H17h0.3h1.2H23h0.4h1.2h3.6c0.3,0,0.9,0,1.6,0.3V8.4h2.9h1.2v0.5c0.6-0.4,1.3-0.6,2-0.6c0,0,2.2,0.1,2.3,0.1
		l0,0h4c0,0,0.4,1,0.4,1.1c0-0.3,0-1.1,0-1.1h4.3c0,0,0.6,1,0.7,1.1c0-0.2,0-1.1,0-1.1h4.1v9h-4.2c0,0-0.6-1-0.7-1.2
		c0,0.1,0,1.2,0,1.2h-5.3c0,0-0.5-1.1-0.6-1.4h-1.4c-0.1,0.3-0.6,1.4-0.6,1.4h-3.5h-0.1c-0.4-0.1-0.9-0.2-1.4-0.6v0.6H31l0,0h-3.7
		v-1.2c0,0,0-0.9,0-1c0,0-0.2,0-0.3,0c0,0.5,0,2.3,0,2.3h-2.5h-1.6h-4.5h-0.3h-3.8v-0.1l-0.1,0.1h-2.9c0,0-0.1-0.1-0.1-0.2v0.2H6
		c0,0-0.4-1.1-0.6-1.4H4c-0.1,0.3-0.6,1.4-0.6,1.4H1v16.3c0,1.4,1.1,2.5,2.5,2.5h48c1.4,0,2.5-1.2,2.5-2.6v-5.5
		c-0.4,0.2-0.9,0.3-1.4,0.3c0,0-0.1,0-0.2,0h-4.2v-0.3c-0.5,0.2-1,0.3-1.5,0.3c0,0-0.1,0-0.2,0H44l0,0h-6l0,0h-4.1v-1.2
		c0,0,0-0.9,0-1c0,0-0.2,0-0.3,0c0,0.5,0,2.3,0,2.3h-4.1v-2.5c-0.7,0.3-1.5,0.3-2.2,0.3c0,0-0.3,0-0.4,0c0,0.4,0,2.1,0,2.1H22
		c0,0-0.8-0.9-1.2-1.3c-0.4,0.5-1.2,1.3-1.2,1.3h-8v-9h7.8c0,0,0.9,1,1.4,1.5c0.5-0.5,1.4-1.5,1.4-1.5h0.5H24h4c0.2,0,0.8,0,1.5,0.2
		v-0.2h5.2c0.3,0,0.9,0,1.6,0.3v-0.3h6.4h1.2v0.3c0.7-0.3,1.4-0.3,1.5-0.3h4.4v0.3c0.7-0.3,1.4-0.3,1.5-0.3h2.8V3.6
		C54.2,2.1,53.1,1,51.7,1z"/>
</g>
<path class="st1" d="M52.2,0.1C51.9,0,51.7,0,51.5,0h-48C1.6,0,0,1.6,0,3.6v29.8c0,2,1.6,3.6,3.5,3.6h48c0.2,0,0.4,0,0.7-0.1
	c1.6-0.3,2.8-1.8,2.8-3.5V3.6C55,1.8,53.8,0.4,52.2,0.1z M3.5,36C2.1,36,1,34.9,1,33.4v-16v-1.2v-0.5v-3.2V3.6C1,2.1,2.1,1,3.5,1h48
	C52.9,1,54,2.1,54,3.6v15.9v1.2v1.5v1.3v3.4v1.4v5.2c0,1.4-1.1,2.6-2.5,2.6L3.5,36L3.5,36z"/>
</svg>
