<?xml version="1.0" encoding="utf-8"?>
<!-- Generator: Adobe Illustrator 19.2.1, SVG Export Plug-In . SVG Version: 6.00 Build 0)  -->
<svg version="1.1" id="Layer_1" xmlns="http://www.w3.org/2000/svg" xmlns:xlink="http://www.w3.org/1999/xlink" x="0px" y="0px"
	 viewBox="0 0 55 37" style="enable-background:new 0 0 55 37;" xml:space="preserve">
<style type="text/css">
	.st0{fill:#FFFFFF;}
	.st1{fill:#5A5B5B;}
	.st2{fill:#0033A0;}
	.st3{fill:#FF9F36;}
	.st4{fill:#107EBF;}
	.st5{fill:#F58025;}
	.st6{fill:url(#SVGID_1_);}
	.st7{fill:#221F1F;}
	.st8{fill:#ED6826;}
	.st9{fill:#E02229;}
	.st10{fill:#F49C23;}
	.st11{fill:#231F20;}
</style>
<g>
	<path class="st0" d="M3.8,0.5l47.5,0c1.8,0,3.3,1.5,3.3,3.3l0,29.5c0,1.8-1.5,3.3-3.3,3.3l-47.5,0c-1.8,0-3.3-1.5-3.3-3.3l0-29.5
		C0.5,2,2,0.5,3.8,0.5z"/>
	<path class="st5" d="M54.3,21.3c0,0-14.8,10.4-41.8,15.1h39.8c1.1,0,2-0.9,2-2V21.3z"/>
	
		<radialGradient id="SVGID_1_" cx="22.3872" cy="-471.3972" r="3.9655" gradientTransform="matrix(1 0 0 1 6.416 486.083)" gradientUnits="userSpaceOnUse">
		<stop  offset="5.618000e-03" style="stop-color:#FFEFE1"/>
		<stop  offset="9.879243e-02" style="stop-color:#FFEAD9"/>
		<stop  offset="0.2508" style="stop-color:#FEDDC2"/>
		<stop  offset="0.4429" style="stop-color:#FDC99E"/>
		<stop  offset="0.6673" style="stop-color:#FAAD72"/>
		<stop  offset="0.9164" style="stop-color:#F68C38"/>
		<stop  offset="1" style="stop-color:#F58025"/>
	</radialGradient>
	<path class="st6" d="M28.8,10.8c-2.2,0-4,1.7-4,3.9c0,2.3,1.7,4,4,4c2.2,0,4-1.7,4-3.9C32.8,12.5,31.1,10.8,28.8,10.8z"/>
	<path class="st7" d="M6,10.9H3.8v7.5H6c1.1,0,2-0.3,2.7-0.9c0.9-0.7,1.4-1.8,1.4-2.9C10,12.5,8.4,10.9,6,10.9z M7.7,16.6
		c-0.5,0.4-1.1,0.6-2,0.6H5.3v-5h0.4c0.9,0,1.5,0.2,2,0.6c0.5,0.4,0.8,1.2,0.8,1.9C8.5,15.4,8.2,16.1,7.7,16.6z"/>
	<rect x="10.7" y="10.9" class="st7" width="1.5" height="7.5"/>
	<path class="st7" d="M15.8,13.8c-0.9-0.3-1.1-0.5-1.1-0.9c0-0.5,0.5-0.8,1.1-0.8c0.4,0,0.8,0.2,1.2,0.6l0.8-1
		c-0.6-0.6-1.4-0.8-2.2-0.8c-1.3,0-2.3,0.9-2.3,2.2c0,1,0.5,1.6,1.8,2.1c0.6,0.2,0.9,0.3,1,0.4c0.3,0.2,0.4,0.5,0.4,0.8
		c0,0.6-0.5,1.1-1.1,1.1c-0.7,0-1.3-0.4-1.6-1l-0.9,0.9c0.7,1,1.5,1.4,2.6,1.4c1.5,0,2.6-1,2.6-2.5C18,14.9,17.5,14.4,15.8,13.8z"/>
	<path class="st7" d="M18.4,14.7c0,2.2,1.7,3.9,4,3.9c0.6,0,1.2-0.1,1.8-0.4v-1.7c-0.6,0.6-1.1,0.8-1.8,0.8c-1.5,0-2.5-1.1-2.5-2.6
		c0-1.4,1.1-2.6,2.5-2.6c0.7,0,1.2,0.2,1.8,0.8v-1.7c-0.6-0.3-1.2-0.5-1.8-0.5C20.2,10.7,18.4,12.5,18.4,14.7z"/>
	<polygon class="st7" points="36.1,16 34.1,10.9 32.5,10.9 35.7,18.6 36.5,18.6 39.8,10.9 38.2,10.9 	"/>
	<polygon class="st7" points="40.4,18.4 44.6,18.4 44.6,17.2 41.9,17.2 41.9,15.1 44.5,15.1 44.5,13.9 41.9,13.9 41.9,12.2 
		44.6,12.2 44.6,10.9 40.4,10.9 	"/>
	<path class="st7" d="M50.4,13.1c0-1.4-1-2.2-2.7-2.2h-2.2v7.5H47v-3h0.2l2,3h1.8l-2.4-3.2C49.8,15,50.4,14.3,50.4,13.1z M47.5,14.4
		H47v-2.3h0.5c0.9,0,1.4,0.4,1.4,1.1C48.9,14,48.4,14.4,47.5,14.4z"/>
	<path class="st7" d="M51.5,11.5c0-0.1-0.1-0.2-0.3-0.2H51v0.7h0.2v-0.3l0.2,0.3h0.2l-0.2-0.3C51.4,11.6,51.5,11.6,51.5,11.5z
		 M51.2,11.6L51.2,11.6l0-0.2h0c0.1,0,0.1,0,0.1,0.1C51.3,11.5,51.2,11.6,51.2,11.6z"/>
	<path class="st7" d="M51.2,11c-0.3,0-0.6,0.3-0.6,0.6c0,0.3,0.3,0.6,0.6,0.6c0.3,0,0.6-0.3,0.6-0.6C51.8,11.3,51.5,11,51.2,11z
		 M51.2,12.1c-0.3,0-0.5-0.2-0.5-0.5c0-0.3,0.2-0.5,0.5-0.5c0.2,0,0.5,0.2,0.5,0.5C51.7,11.9,51.5,12.1,51.2,12.1z"/>
	<path class="st7" d="M17,20.4l2,2.1v-2h0.3v2.6l-2-2.1V23H17V20.4z"/>
	<path class="st7" d="M17,20.4v2.7h0.3c0,0,0-1.8,0-1.9c0.1,0.1,2,2.1,2,2.1v-2.7H19c0,0,0,1.8,0,1.9C18.9,22.3,17,20.4,17,20.4
		L17,20.4z M17,20.5c0.1,0.1,2,2.1,2,2.1s0-1.9,0-2c0,0,0.2,0,0.2,0c0,0,0,2.4,0,2.5c-0.1-0.1-2-2.1-2-2.1s0,1.9,0,2
		c0,0-0.2,0-0.2,0C17,23,17,20.6,17,20.5z"/>
	<path class="st7" d="M20.6,20.5h1.3v0.3h-1v0.7h1v0.3h-1v1h1V23h-1.3V20.5z"/>
	<path class="st7" d="M21.9,20.5h-1.3v2.6H22v-0.3c0,0-1,0-1,0c0,0,0-0.9,0-0.9c0.1,0,1,0,1,0v-0.3c0,0-0.9,0-1,0c0,0,0-0.6,0-0.7
		c0.1,0,1,0,1,0L21.9,20.5L21.9,20.5z M21.9,20.5c0,0,0,0.2,0,0.2c-0.1,0-1,0-1,0v0.8c0,0,0.9,0,1,0c0,0,0,0.2,0,0.2c0,0-1,0-1,0v1
		c0,0,1,0,1,0c0,0,0,0.2,0,0.2c-0.1,0-1.2,0-1.3,0c0-0.1,0-2.4,0-2.5C20.7,20.5,21.8,20.5,21.9,20.5z"/>
	<path class="st7" d="M23.9,23h-0.3v-2.3H23v-0.3h1.5v0.3h-0.6V23z"/>
	<path class="st7" d="M24.5,20.5H23v0.3c0,0,0.6,0,0.6,0c0,0.1,0,2.3,0,2.3h0.3c0,0,0-2.2,0-2.3c0,0,0.6,0,0.6,0L24.5,20.5
		L24.5,20.5z M24.5,20.5c0,0,0,0.2,0,0.2c0,0-0.6,0-0.6,0s0,2.2,0,2.3c0,0-0.2,0-0.2,0c0-0.1,0-2.3,0-2.3s-0.6,0-0.6,0
		c0,0,0-0.2,0-0.2C23.1,20.5,24.4,20.5,24.5,20.5z"/>
	<path class="st7" d="M26.4,22.4l0.8-2l0.8,2l0.7-1.9H29l-1,2.7l-0.8-2l-0.8,2l-1-2.7h0.3L26.4,22.4z"/>
	<path class="st7" d="M27.2,20.4c0,0-0.7,1.8-0.8,2c0-0.1-0.6-1.8-0.6-1.8h-0.4l1,2.8c0,0,0.8-1.9,0.8-2c0,0.1,0.8,2,0.8,2l1-2.8
		h-0.4c0,0-0.6,1.7-0.6,1.8C28,22.2,27.2,20.3,27.2,20.4L27.2,20.4z M26.4,22.4c0,0,0.7-1.8,0.8-2c0,0.1,0.8,2,0.8,2
		s0.7-1.9,0.7-1.9c0,0,0.2,0,0.3,0c0,0.1-0.9,2.4-0.9,2.6c0-0.1-0.8-2-0.8-2s-0.8,1.9-0.8,2c0-0.1-0.9-2.5-0.9-2.6
		c0.1,0,0.2,0,0.2,0C25.7,20.6,26.4,22.5,26.4,22.4L26.4,22.4z"/>
	<path class="st7" d="M32.6,21.8c0,0.7-0.6,1.3-1.3,1.3c-0.7,0-1.3-0.6-1.3-1.3c0-0.7,0.6-1.3,1.3-1.3C32,20.5,32.6,21.1,32.6,21.8z
		 M30.3,21.8c0,0.6,0.5,1,1,1c0.6,0,1-0.5,1-1c0-0.6-0.5-1-1-1C30.7,20.7,30.3,21.2,30.3,21.8z"/>
	<path class="st7" d="M30,21.8c0,0.7,0.6,1.3,1.3,1.3c0.7,0,1.3-0.6,1.3-1.3c0-0.7-0.6-1.3-1.3-1.3C30.6,20.5,30,21.1,30,21.8z
		 M30,21.8c0-0.7,0.6-1.3,1.3-1.3c0.7,0,1.3,0.6,1.3,1.3c0,0.7-0.6,1.3-1.3,1.3C30.6,23.1,30,22.5,30,21.8z"/>
	<path class="st7" d="M30.3,21.8c0,0.6,0.5,1.1,1.1,1.1c0.6,0,1.1-0.5,1.1-1.1c0-0.6-0.5-1.1-1.1-1.1C30.7,20.7,30.3,21.2,30.3,21.8
		z M30.3,21.8c0-0.6,0.5-1,1-1c0.6,0,1,0.5,1,1c0,0.6-0.4,1-1,1C30.8,22.8,30.3,22.3,30.3,21.8z"/>
	<path class="st7" d="M34.1,23h-0.3v-2.5h0.4c0.5,0,0.9,0.1,0.9,0.7c0,0.4-0.2,0.7-0.6,0.7l0.8,1.1H35l-0.8-1.1h-0.1V23z M34.1,21.7
		L34.1,21.7c0.4,0,0.7-0.1,0.7-0.5c0-0.4-0.3-0.5-0.6-0.5h-0.1V21.7z"/>
	<path class="st7" d="M33.8,20.5L33.8,20.5l0,2.6h0.3c0,0,0-1.1,0-1.1c0,0,0,0,0,0l0,0c0,0,0.7,1.1,0.7,1.1l0.4,0h0
		c0,0-0.8-1.1-0.8-1.1c0.4-0.1,0.6-0.3,0.6-0.7c0-0.5-0.3-0.7-0.9-0.7H33.8z M34.2,20.5c0.6,0,0.9,0.2,0.9,0.7
		c0,0.4-0.2,0.6-0.6,0.7l0,0c0,0,0.7,1,0.8,1.1c-0.1,0-0.3,0-0.3,0v0c0,0-0.7-1.1-0.7-1.1l-0.1,0h0c0,0,0,1.1,0,1.1c0,0-0.2,0-0.2,0
		c0-0.1,0-2.4,0-2.5C33.9,20.5,34.2,20.5,34.2,20.5z"/>
	<path class="st7" d="M34.1,20.8L34.1,20.8l0,1h0.1c0.3,0,0.7-0.1,0.7-0.5C34.9,20.8,34.5,20.8,34.1,20.8L34.1,20.8z M34.2,20.8
		c0.3,0,0.6,0,0.6,0.4c0,0.4-0.3,0.4-0.6,0.4c0,0,0,0-0.1,0C34.2,21.6,34.2,20.9,34.2,20.8C34.2,20.8,34.2,20.8,34.2,20.8z"/>
	<path class="st7" d="M37.8,20.5h0.4L37,21.7l1.2,1.3h-0.4l-1-1.2L36.8,22V23h-0.3v-2.5h0.3v1.1L37.8,20.5z"/>
	<path class="st7" d="M38.2,20.5h-0.4c0,0-1,1-1,1c0-0.1,0-1,0-1h-0.3v2.6h0.3c0,0,0-1.1,0-1.1c0,0,0,0,0,0c0,0,1,1.1,1,1.1l0.4,0
		h0.1c0,0-1.2-1.3-1.2-1.4C37.1,21.7,38.3,20.5,38.2,20.5L38.2,20.5z M38.2,20.5c-0.1,0.1-1.2,1.1-1.2,1.1s1.1,1.2,1.2,1.3
		c-0.1,0-0.3,0-0.3,0v0c0,0-1-1.1-1-1.1l0,0l-0.1,0.1c0,0,0,1,0,1.1c0,0-0.2,0-0.2,0c0-0.1,0-2.4,0-2.5c0,0,0.2,0,0.2,0
		c0,0,0,1.1,0,1.1s1.1-1.1,1.1-1.1C37.9,20.5,38.1,20.5,38.2,20.5z"/>
	<path class="st1" d="M51.5,37h-48C1.6,37,0,35.4,0,33.4V3.6C0,1.6,1.6,0,3.5,0h48C53.4,0,55,1.6,55,3.6v29.8
		C55,35.4,53.4,37,51.5,37z M3.5,1C2.1,1,1,2.1,1,3.6v29.8C1,34.9,2.1,36,3.5,36h48c1.4,0,2.5-1.2,2.5-2.6V3.6C54,2.1,52.9,1,51.5,1
		H3.5z"/>
</g>
</svg>
