<?xml version="1.0" encoding="utf-8"?>
<!-- Generator: Adobe Illustrator 19.2.1, SVG Export Plug-In . SVG Version: 6.00 Build 0)  -->
<svg version="1.1" id="Layer_1" xmlns="http://www.w3.org/2000/svg" xmlns:xlink="http://www.w3.org/1999/xlink" x="0px" y="0px"
	 viewBox="0 0 55 37" style="enable-background:new 0 0 55 37;" xml:space="preserve">
<style type="text/css">
	.st0{fill:#FFFFFF;}
	.st1{fill:#5A5B5B;}
	.st2{fill:#0033A0;}
	.st3{fill:#FF9F36;}
	.st4{fill:#107EBF;}
	.st5{fill:#F58025;}
	.st6{fill:url(#SVGID_1_);}
	.st7{fill:#221F1F;}
	.st8{fill:#ED6826;}
	.st9{fill:#E02229;}
	.st10{fill:#F49C23;}
	.st11{fill:#231F20;}
</style>
<g>
	<path class="st0" d="M54.5,33.4c0,1.7-1.3,3.1-3,3.1h-48c-1.7,0-3-1.4-3-3.1V3.6c0-1.7,1.3-3.1,3-3.1h48c1.7,0,3,1.4,3,3.1V33.4z"
		/>
	<path class="st1" d="M51.5,37h-48C1.6,37,0,35.4,0,33.4V3.6C0,1.6,1.6,0,3.5,0h48C53.4,0,55,1.6,55,3.6v29.8
		C55,35.4,53.4,37,51.5,37z M3.5,1C2.1,1,1,2.1,1,3.6v29.8C1,34.9,2.1,36,3.5,36h48c1.4,0,2.5-1.2,2.5-2.6V3.6C54,2.1,52.9,1,51.5,1
		H3.5z"/>
	<polygon class="st2" points="21.1,23.6 23.1,11.3 26.2,11.3 24.2,23.6 	"/>
	<path class="st2" d="M35.5,11.4c-0.6-0.2-1.6-0.5-2.8-0.5c-3.1,0-5.2,1.7-5.3,4.1c0,1.8,1.5,2.8,2.7,3.4c1.2,0.6,1.6,1,1.6,1.5
		c0,0.8-1,1.2-1.9,1.2c-1.2,0-1.9-0.2-2.9-0.6l-0.4-0.2L26.2,23c0.7,0.3,2.1,0.6,3.5,0.7c3.3,0,5.4-1.7,5.4-4.2
		c0-1.4-0.8-2.5-2.6-3.4c-1.1-0.6-1.8-1-1.7-1.5c0-0.5,0.6-1.1,1.8-1.1c1,0,1.8,0.2,2.3,0.5l0.3,0.1L35.5,11.4"/>
	<path class="st2" d="M43,11.3h-1.9c-0.7,0-1.3,0.2-1.6,1l-4.6,11.3h3.3c0,0,0.5-1.6,0.7-1.9c0.4,0,3.5,0,4,0
		c0.1,0.4,0.4,1.9,0.4,1.9H46l-2.5-12.4 M39.6,19.5c0.3-1,1.2-3.7,1.2-3.7c0,0,0.3-0.8,0.4-1.3l0.2,1.2c0,0,0.6,2.7,0.7,3.7H39.6z"
		/>
	<path class="st2" d="M18.5,11.3l-3,8.4l-0.3-1.8c-0.6-2-2.3-4.1-4.3-5.2l2.8,10.8l3.3,0.1l4.9-12.3H19"/>
	<path class="st3" d="M13,11.3H7.6l0,0.2c3.9,1,6.5,3.5,7.6,6.4L14,12.3c-0.2-0.8-0.7-1-1.4-1"/>
</g>
</svg>
